<svg width="62" height="66" viewBox="0 0 62 66" fill="none" xmlns="http://www.w3.org/2000/svg" style="">
<path d="M47.2879 19.207L39.9119 11.3993L39.5484 11.7427L39.9119 11.3993C37.5447 8.89361 35.523 6.83724 34.0284 5.40513C33.2821 4.69 32.6613 4.12476 32.1916 3.73578C31.9579 3.54217 31.7525 3.3846 31.5824 3.27282C31.4979 3.21723 31.4121 3.16634 31.3292 3.12763C31.2596 3.09516 31.1358 3.04362 30.9921 3.04362C30.883 3.04362 30.7936 3.07498 30.7449 3.09452C30.6887 3.11703 30.6359 3.14509 30.5897 3.17232C30.4969 3.2269 30.3935 3.30009 30.2842 3.38404C30.0637 3.55336 29.7788 3.79782 29.4365 4.10843C28.7499 4.73155 27.8031 5.64781 26.6244 6.82812C24.2655 9.19023 20.9604 12.6273 16.915 16.9328L4.01249 30.6643L3.22097 31.5067H4.37688H7.80943H10.742V46.5101V62.0134V62.5134H11.242H16.2384H21.2348H21.7348V62.0134V54.9262V48.3389H28.9377H36.1405V54.8996V61.9598V62.4177L36.5966 62.4579L38.158 62.5957L38.1581 62.5957C38.5463 62.6298 38.7942 62.6561 38.9708 62.6986C39.1357 62.7383 39.1717 62.7774 39.1848 62.7931C39.2083 62.8212 39.2544 62.8987 39.2953 63.135C39.3358 63.3691 39.3608 63.6878 39.3923 64.1513L39.3923 64.1514L39.4841 65.5H23.965H8.41102V50.4966V34.9933V34.4933H7.91102H3.95551H0.5V32.4485V30.1023L14.4143 15.2943L14.4144 15.2943L28.3166 0.5H31.0133H33.7101L41.5734 8.85707L41.9376 8.51444L41.5734 8.85708L49.2675 17.0339L48.252 18.1486L48.2519 18.1486L47.2879 19.207ZM60.9972 41.5089L60.9972 41.5089L50.1088 64.4633C50.1088 64.4634 50.1088 64.4634 50.1088 64.4635C50.0404 64.809 49.9897 65.0282 49.9312 65.1813C49.8779 65.321 49.8354 65.3581 49.8079 65.3767C49.7674 65.4042 49.677 65.4442 49.4478 65.4695C49.2196 65.4946 48.9131 65.5 48.4742 65.5C48.0675 65.5 47.7699 65.4927 47.5473 65.4708C47.3176 65.4483 47.2188 65.4141 47.1796 65.3929C47.1751 65.3905 47.173 65.3903 47.1715 65.3892C47.1695 65.3877 47.1687 65.3846 47.1644 65.3719C47.1468 65.3195 47.1317 65.2171 47.1313 65.0024C47.1308 64.7489 47.0651 64.4213 46.9691 64.0641C46.8701 63.6957 46.7274 63.2556 46.5497 62.7612C46.1941 61.7716 45.6901 60.541 45.0913 59.1885C43.8935 56.483 42.3063 53.2664 40.7434 50.4739C38.2532 46.0248 36.9993 43.7494 36.3578 42.0548C35.7337 40.4059 35.6943 39.3215 35.6932 37.2078C35.692 34.3293 35.892 33.083 36.5361 31.5942C38.3277 27.453 42.1918 24.2707 46.2785 23.5245C52.5177 22.3853 58.8711 26.2552 60.942 32.5L60.942 32.5001C61.2945 33.5625 61.4893 35.2909 61.4996 37.0485C61.5098 38.8084 61.3345 40.5053 60.9972 41.5089ZM55.6109 46.3125L55.6109 46.3124C56.3369 45.0229 57.0518 43.632 57.6197 42.428C58.1805 41.2387 58.6176 40.1907 58.7646 39.6053C59.9416 34.9221 57.6455 29.7232 53.378 27.389C52.4199 26.8646 50.6641 26.37 49.4325 26.2663C42.9339 25.7175 37.8873 31.0321 38.2945 37.8359L38.2945 37.836C38.3705 39.1031 38.4873 39.987 38.8784 41.0554C39.2615 42.1022 39.9036 43.3135 40.9926 45.2496L41.4284 45.0045L40.9926 45.2496C42.3442 47.6523 44.5166 51.7939 45.8163 54.4463L45.8164 54.4464L48.1872 59.283L48.6457 60.2185L49.0887 59.2755L51.0485 55.1033L50.596 54.8907L51.0485 55.1033C52.1206 52.8211 54.1754 48.8614 55.6109 46.3125ZM24.4822 39.4228V39.9228H24.9822H27.8968H30.3113V41.4161V42.9094H26.0231H21.7348V37.2081V31.5067H26.0231H30.3113V33V34.4933H27.8968H24.9822H24.4822V34.9933V37.2081V39.4228ZM32.8932 62.5134H33.3932V62.0134V56.698V51.3826V50.8826H32.8932H28.9377H24.9822H24.4822V51.3826V56.698V62.0134V62.5134H24.9822H28.9377H32.8932ZM48.5071 38.4799H47.1334V36.9866V35.4933H48.5071H49.8807V36.9866V38.4799H48.5071Z" stroke="white" class="qKovtMFg_0"></path>
<style data-made-with="vivus-instant">.qKovtMFg_0{stroke-dasharray:607 609;stroke-dashoffset:608;animation:qKovtMFg_draw 2000ms ease-in-out 0ms forwards;}@keyframes qKovtMFg_draw{100%{stroke-dashoffset:0;}}@keyframes qKovtMFg_fade{0%{stroke-opacity:1;}94.44444444444444%{stroke-opacity:1;}100%{stroke-opacity:0;}}</style></svg>
